<?xml version="1.0" encoding="UTF-8" standalone="no"?>
<svg
   xmlns:dc="http://purl.org/dc/elements/1.1/"
   xmlns:cc="http://creativecommons.org/ns#"
   xmlns:rdf="http://www.w3.org/1999/02/22-rdf-syntax-ns#"
   xmlns:svg="http://www.w3.org/2000/svg"
   xmlns="http://www.w3.org/2000/svg"
   xmlns:sodipodi="http://sodipodi.sourceforge.net/DTD/sodipodi-0.dtd"
   xmlns:inkscape="http://www.inkscape.org/namespaces/inkscape"
   width="225"
   height="225"
   viewBox="0 0 59.531252 59.531252"
   version="1.1"
   id="svg8"
   inkscape:version="1.0.1 (3bc2e813f5, 2020-09-07)"
   sodipodi:docname="favicon.svg">
  <defs
     id="defs2" />
  <sodipodi:namedview
     id="base"
     pagecolor="#ffffff"
     bordercolor="#666666"
     borderopacity="1.0"
     inkscape:pageopacity="0.0"
     inkscape:pageshadow="2"
     inkscape:zoom="1.979899"
     inkscape:cx="148.65739"
     inkscape:cy="85.047646"
     inkscape:document-units="mm"
     inkscape:current-layer="layer1"
     inkscape:document-rotation="0"
     showgrid="false"
     units="px"
     inkscape:window-width="1278"
     inkscape:window-height="1368"
     inkscape:window-x="2713"
     inkscape:window-y="640"
     inkscape:window-maximized="0" />
  <metadata
     id="metadata5">
    <rdf:RDF>
      <cc:Work
         rdf:about="">
        <dc:format>image/svg+xml</dc:format>
        <dc:type
           rdf:resource="http://purl.org/dc/dcmitype/StillImage" />
        <dc:title></dc:title>
      </cc:Work>
    </rdf:RDF>
  </metadata>
  <g
     inkscape:label="Lag 1"
     inkscape:groupmode="layer"
     id="layer1">
    <path
       style="fill:#000000;stroke-width:38.179;stroke-linecap:round"
       d="m 117.09012,224.11182 c -2.71453,-1.50135 -6.67696,-6.42258 -9.76055,-12.12234 -2.84555,-5.25974 -4.28916,-9.812 -5.49419,-17.32521 -0.31563,-1.9679 -0.67545,-2.64022 -1.66531,-3.11157 -0.69448,-0.33071 -2.344382,-1.11298 -3.666455,-1.73838 -3.289223,-1.55596 -6.114393,-4.07946 -8.361598,-7.46875 -3.868723,-5.83488 -4.675411,-8.45133 -5.004922,-16.23318 -0.278489,-6.57694 0.53136,-10.68956 3.282142,-16.66752 0.993056,-2.1581 7.692852,-12.30851 8.278847,-12.54272 0.231673,-0.0926 0.421223,-0.39258 0.421223,-0.66662 0,-0.27404 0.683308,-1.4914 1.518456,-2.70525 2.569955,-3.7353 7.433507,-13.60696 9.007287,-18.28226 3.14211,-9.33443 3.2914,-11.66885 0.70592,-11.03801 -0.76047,0.18555 -2.29181,0.5212 -3.40298,0.74589 -7.77963,1.57315 -20.82919,8.06225 -31.155727,15.4927 -5.958903,4.28772 -8.22678,5.56069 -12.490136,7.01075 -7.889889,2.68352 -15.985892,2.68221 -23.121822,-0.004 -7.998926,-3.01099 -13.212498,-8.45515 -15.295606,-15.9723 -1.204164,-4.34537 -1.280515,-6.95785 -0.312016,-10.67617 2.651491,-10.179762 10.788026,-18.147548 22.082345,-21.624364 5.385117,-1.657742 14.8583,-1.663979 19.861824,-0.01308 1.930774,0.637055 4.203617,1.510896 5.050763,1.941869 4.720689,2.401584 9.527136,7.419558 10.93641,11.417706 1.183677,3.35811 0.438295,3.361393 12.82721,-0.0565 1.944544,-0.536467 6.262946,-1.703324 9.596445,-2.593017 3.33351,-0.889692 7.19734,-1.923772 8.5863,-2.297956 1.38896,-0.374185 5.52444,-0.82108 9.18996,-0.993101 l 6.66458,-0.312764 8.23517,-3.936821 c 8.22609,-3.932479 9.998,-4.476074 18.3367,-5.625428 2.22233,-0.306312 5.29067,-0.760881 6.81853,-1.010152 1.52785,-0.249271 4.59619,-0.70384 6.81853,-1.010153 2.22233,-0.306312 5.29067,-0.758309 6.81853,-1.004436 1.52785,-0.246127 4.42573,-0.689028 6.43972,-0.984225 3.83914,-0.562713 8.74841,-1.289095 14.2684,-2.111174 1.80565,-0.268911 4.54675,-0.70652 6.09132,-0.972466 4.34071,-0.747383 5.52544,-0.644096 5.52544,0.481717 0,1.500588 -2.57918,3.316196 -6.90571,4.861254 -4.71328,1.683171 -20.77202,8.017926 -23.6921,9.345913 -1.13355,0.515514 -3.29275,1.421459 -4.79822,2.013212 -1.50548,0.591754 -3.4759,1.399112 -4.37873,1.794128 -9.27501,4.058141 -13.66912,5.768976 -14.81707,5.768976 -0.50547,0 -1.44112,0.203615 -2.07922,0.452478 -0.6381,0.248863 -2.06932,0.684679 -3.18049,0.96848 -3.3658,0.859651 -6.49567,1.705051 -7.82868,2.114576 -0.69448,0.213357 -2.28547,0.67229 -3.53554,1.01985 -1.25006,0.347561 -3.06833,0.856517 -4.04061,1.131013 -3.10779,0.877415 -4.2703,1.743255 -4.69709,3.498455 -1.04504,4.29765 -1.58073,6.3045 -2.94111,11.0182 -0.2806,0.97227 -0.70724,2.56326 -0.94809,3.53554 -0.24085,0.97227 -0.68031,2.62008 -0.97657,3.6618 l -1.07732,3.78807 c -2.13764,7.51639 -2.12984,7.63429 0.57338,8.67079 7.48877,2.87145 12.56218,9.90077 15.07259,20.88342 1.89631,8.296 -1.85578,20.90916 -8.357,28.09324 -2.87619,3.17829 -7.11954,6.36863 -10.20927,7.67579 l -1.6912,0.71548 0.31122,3.10714 c 0.64181,6.40765 3.79771,13.20476 8.4813,18.2668 0.97532,1.05414 2.03213,2.40022 2.34847,2.99131 0.83973,1.56906 0.70269,5.02262 -0.25746,6.48799 -1.58983,2.42639 -5.56956,3.49259 -8.00622,2.14492 z m -5.87937,-46.25575 c 2.92745,-1.37948 6.12238,-5.0156 8.03648,-9.14622 1.66706,-3.59752 1.79064,-4.20887 1.81627,-8.98546 0.0253,-4.7168 -0.0917,-5.35695 -1.46785,-8.0316 -0.82245,-1.59846 -2.34539,-3.59153 -3.38429,-4.42905 -1.6226,-1.30807 -2.30898,-1.52276 -4.86837,-1.52276 -3.68198,0 -5.84296,0.97906 -8.89301,4.0291 -2.880633,2.88065 -4.516317,6.04145 -5.620257,10.86064 -1.84808,8.06769 1.419865,15.78231 7.633497,18.02036 1.76952,0.63735 4.35409,0.33283 6.74753,-0.79501 z M 52.290328,115.66936 c 0.638102,-0.24227 2.069324,-0.72902 3.180492,-1.08167 4.219643,-1.3392 9.292838,-5.82666 10.673097,-9.44082 2.355517,-6.16783 -1.294405,-11.689515 -9.038848,-13.674172 -3.736199,-0.957471 -8.852954,-0.546434 -11.602652,0.932058 -0.482367,0.259364 -1.11987,0.471572 -1.416674,0.471572 -0.296803,0 -1.900146,0.923901 -3.562984,2.053113 -9.932974,6.745349 -9.028452,17.004729 1.816078,20.598509 1.91041,0.6331 8.413053,0.72549 9.951491,0.14141 z"
       id="path847"
       transform="scale(0.26458333)" />
    <path
       style="fill:#000000;stroke-width:38.179;stroke-linecap:round"
       d="m 112.22339,80.012556 c -0.15678,-0.156781 0.72509,-3.633706 1.9597,-7.726506 1.23461,-4.092799 2.87866,-9.600656 3.65345,-12.23968 1.335,-4.547206 3.53412,-10.434133 5.56595,-14.89975 0.50557,-1.111167 2.09516,-4.975001 3.53241,-8.586296 1.43726,-3.611296 2.95848,-7.361487 3.3805,-8.333759 0.42203,-0.972272 0.94102,-2.222335 1.15332,-2.777919 0.58844,-1.539926 1.32806,-3.374376 2.03638,-5.050763 0.35213,-0.833376 0.83711,-2.026619 1.07773,-2.65165 l 0.875,-2.272844 c 0.24063,-0.625032 0.6708,-1.704632 0.95595,-2.399112 1.70042,-4.141387 2.64716,-6.7866901 2.64716,-7.3964636 0,-0.5908352 1.84876,-5.04478013 2.36541,-5.69864839 0.0937,-0.11861694 0.51175,0.22230953 0.92894,0.75761441 0.48233,0.61889098 0.65393,1.52500548 0.47127,2.48851038 -0.15799,0.8333758 -0.51551,3.4471455 -0.79448,5.8083771 -0.27897,2.3612311 -0.72067,5.9409601 -0.98156,7.9549511 -0.95756,7.392081 -1.49616,11.582894 -1.99604,15.531096 -0.28137,2.222335 -0.73413,5.745242 -1.00613,7.828682 -0.272,2.083439 -0.71746,5.606346 -0.9899,7.828682 -2.1673,17.678735 -1.76448,16.277229 -6.82306,23.738585 -2.44835,3.611295 -4.703,6.823732 -5.01034,7.138748 -0.57778,0.592232 -12.48973,1.47007 -13.00166,0.958145 z"
       id="path849"
       transform="scale(0.26458333)" />
  </g>
</svg>
